<?xml version="1.0" standalone="no"?>
<!DOCTYPE svg PUBLIC "-//W3C//DTD SVG 20010904//EN"
 "http://www.w3.org/TR/2001/REC-SVG-20010904/DTD/svg10.dtd">
<svg version="1.0" xmlns="http://www.w3.org/2000/svg"
 width="700.000000pt" height="700.000000pt" viewBox="0 0 700.000000 700.000000"
 preserveAspectRatio="xMidYMid meet">
<metadata>
Created by potrace 1.11, written by Peter Selinger 2001-2013
</metadata>
<g transform="translate(0.000000,700.000000) scale(0.100000,-0.100000)"
fill="#000000" stroke="none">
<path d="M0 3500 l0 -3500 3500 0 3500 0 0 3500 0 3500 -3500 0 -3500 0 0
-3500z m3330 665 l0 -1695 -632 0 c-804 0 -947 11 -1143 85 -230 86 -394 263
-482 520 -23 69 -53 215 -53 261 l0 24 340 0 339 0 28 -56 c15 -31 41 -67 58
-81 101 -86 291 -117 685 -111 l215 3 3 1053 2 1052 -217 0 c-240 -1 -324 -8
-426 -40 -76 -24 -128 -64 -158 -122 l-19 -38 -346 0 -345 0 6 53 c12 96 47
221 85 303 97 210 222 325 440 404 201 74 248 78 983 79 l637 1 0 -1695z
m1609 1685 c376 -29 614 -149 755 -380 75 -122 136 -308 136 -415 l0 -35 -342
0 -343 0 -25 48 c-60 113 -212 152 -597 152 l-193 0 0 -1051 0 -1051 333 4
c308 4 337 6 407 27 126 38 204 98 231 178 l11 33 339 0 339 0 0 -38 c0 -97
-41 -248 -100 -367 -105 -211 -263 -347 -483 -415 -175 -54 -159 -53 -964 -57
l-753 -4 0 1690 0 1691 558 0 c306 0 617 -5 691 -10z m855 -1172 c-7 -29 -30
-87 -50 -128 -48 -98 -179 -232 -273 -279 -35 -18 -60 -36 -55 -41 5 -4 34
-15 64 -25 220 -69 403 -264 473 -502 l16 -53 -323 0 -324 0 -26 55 c-63 128
-199 177 -532 191 l-154 7 0 288 0 288 43 5 c23 3 81 7 128 10 209 12 338 81
369 198 l11 38 323 0 324 0 -14 -52z m-1869 -2468 c39 -6 96 -18 128 -27 l57
-16 0 -64 c0 -58 -2 -64 -17 -58 -283 119 -519 63 -517 -121 2 -100 38 -125
255 -174 155 -35 203 -55 263 -110 58 -54 81 -112 81 -210 0 -101 -23 -157
-87 -215 -115 -103 -365 -123 -588 -47 l-55 19 -3 66 c-2 37 -1 67 1 67 3 0
29 -11 59 -25 128 -58 273 -78 375 -52 107 28 156 86 155 184 -1 106 -63 156
-242 194 -208 44 -281 83 -325 174 -25 50 -27 63 -23 139 3 67 9 92 31 128 74
127 234 179 452 148z m1555 -20 c36 -11 83 -30 105 -43 l40 -23 3 -73 3 -74
-33 28 c-88 75 -240 116 -358 98 -210 -33 -311 -173 -311 -433 0 -220 73 -356
220 -410 142 -54 315 -27 438 67 l44 34 -3 -73 -3 -73 -65 -33 c-242 -121
-549 -57 -685 143 -113 167 -126 450 -29 642 60 118 184 209 323 239 86 18
227 11 311 -16z m-3986 -346 c72 -193 136 -351 141 -351 6 0 54 118 108 261
54 144 114 303 133 354 l36 92 104 0 104 0 0 -530 0 -530 -65 0 -65 0 0 465
c0 256 -3 465 -7 465 -5 0 -68 -162 -142 -360 l-134 -360 -72 0 -71 0 -134
355 c-73 196 -137 358 -142 361 -4 3 -8 -204 -8 -460 l0 -466 -65 0 -65 0 0
530 0 531 106 -3 106 -3 132 -351z m1038 -21 c5 -412 9 -447 65 -513 78 -93
287 -108 380 -27 83 73 93 134 93 575 l0 342 65 0 66 0 -3 -402 c-3 -393 -4
-404 -26 -459 -49 -122 -142 -190 -290 -211 -216 -32 -389 49 -454 211 -22 55
-23 66 -26 459 l-3 402 65 0 64 0 4 -377z m2018 -153 l0 -530 -70 0 -70 0 0
530 0 530 70 0 70 0 0 -530z"/>
</g>
</svg>
