<?xml version="1.0" encoding="utf-8"?>
<!-- Generator: Adobe Illustrator 16.0.0, SVG Export Plug-In . SVG Version: 6.00 Build 0)  -->
<!DOCTYPE svg PUBLIC "-//W3C//DTD SVG 1.1//EN" "http://www.w3.org/Graphics/SVG/1.1/DTD/svg11.dtd">
<svg version="1.1" id="Layer_1" xmlns="http://www.w3.org/2000/svg" xmlns:xlink="http://www.w3.org/1999/xlink" x="0px" y="0px"
	 width="48px" height="48px" viewBox="0 0 48 48" enable-background="new 0 0 48 48" xml:space="preserve">
<text transform="matrix(1 0 0 1 -15.3232 130.666)" display="none" fill="#27A6A6" font-family="'Montserrat-Bold'" font-size="520">B</text>
<g>
	<path fill="#FFFFFF" d="M22.374,8.214v31.572H10.545c-3.711,0-6.313-0.979-7.81-2.936c-1.188-1.554-1.827-3.326-1.92-5.314h6.381
		c0.199,0.711,0.574,1.226,1.126,1.543c0.863,0.497,2.157,0.745,3.885,0.745h4.137V14.176h-2.9c-1.777,0-3.041,0.226-3.788,0.678
		c-0.408,0.247-0.706,0.636-0.89,1.167H2.326c0.099-1.828,0.7-3.481,1.802-4.96c0.669-0.873,1.669-1.565,2.995-2.078
		c1.327-0.511,2.906-0.768,4.735-0.768H22.374z"/>
</g>
<g>
	<path fill="#FFFFFF" d="M47.185,31.515c-0.093,1.983-0.73,3.75-1.915,5.301c-1.49,1.952-4.086,2.928-7.787,2.928H25.687V8.257
		h10.484c1.825,0,3.399,0.255,4.723,0.766c1.323,0.511,2.32,1.202,2.988,2.072c1.099,1.475,1.698,3.124,1.796,4.947h-6.421
		c-0.185-0.53-0.48-0.917-0.889-1.164c-0.744-0.45-2.004-0.675-3.777-0.675h-2.892v19.594h4.126c1.723,0,3.013-0.248,3.874-0.743
		c0.549-0.316,0.924-0.829,1.123-1.539H47.185z"/>
	<path fill="#29A7A7" d="M34.251,21.004v5.541h0.995c2.005,0,3.463,0.233,4.376,0.698c0.62,0.316,1.029,0.861,1.228,1.636h6.133
		c-0.234-1.075-0.656-2.025-1.27-2.853c-0.99-1.336-2.319-2.215-3.99-2.635c0.463-0.24,0.784-0.413,0.964-0.518
		c0.181-0.105,0.501-0.368,0.964-0.789c0.944-0.833,1.562-1.968,1.851-3.407h-6.104c-0.16,0.824-0.535,1.39-1.125,1.696
		c-0.81,0.42-2.05,0.63-3.72,0.63H34.251z"/>
</g>
<rect display="none" fill="#FFFFFF" width="48" height="48"/>
</svg>
