<?xml version="1.0" encoding="utf-8"?>
<!-- Generator: Adobe Illustrator 16.0.0, SVG Export Plug-In . SVG Version: 6.00 Build 0)  -->
<!DOCTYPE svg PUBLIC "-//W3C//DTD SVG 1.1//EN" "http://www.w3.org/Graphics/SVG/1.1/DTD/svg11.dtd">
<svg version="1.1" id="Layer_1" xmlns="http://www.w3.org/2000/svg" xmlns:xlink="http://www.w3.org/1999/xlink" x="0px" y="0px"
	 width="48px" height="48px" viewBox="387.5 387.5 48 48" enable-background="new 387.5 387.5 48 48" xml:space="preserve">
<rect x="387.5" y="387.5" display="none" width="48" height="48"/>
<g>
	<path fill="#FFFFFF" d="M410.354,395.309v23.233h-8.704c-2.731,0-4.646-0.722-5.747-2.16c-0.874-1.144-1.346-2.446-1.413-3.909
		h4.694c0.146,0.522,0.424,0.9,0.829,1.135c0.636,0.365,1.589,0.548,2.859,0.548h3.044v-14.458h-2.134
		c-1.31,0-2.238,0.166-2.788,0.499c-0.301,0.182-0.521,0.468-0.655,0.858H395.6c0.073-1.345,0.516-2.562,1.326-3.65
		c0.492-0.642,1.229-1.152,2.204-1.529c0.978-0.376,2.14-0.565,3.485-0.565L410.354,395.309L410.354,395.309z"/>
</g>
<g>
	<path fill="#FFFFFF" d="M428.611,412.455c-0.068,1.46-0.538,2.76-1.41,3.9c-1.098,1.437-3.006,2.154-5.729,2.154h-8.681v-23.17
		h7.716c1.343,0,2.501,0.188,3.476,0.563c0.974,0.376,1.707,0.884,2.198,1.525c0.81,1.085,1.25,2.299,1.321,3.64h-4.726
		c-0.136-0.389-0.354-0.674-0.653-0.856c-0.547-0.331-1.475-0.497-2.779-0.497h-2.128v14.419h3.036c1.268,0,2.217-0.183,2.852-0.547
		c0.403-0.233,0.681-0.61,0.825-1.133L428.611,412.455L428.611,412.455z"/>
	<path fill="#29A7A7" d="M419.094,404.721v4.077h0.732c1.475,0,2.548,0.171,3.22,0.514c0.456,0.233,0.757,0.634,0.903,1.204h4.513
		c-0.173-0.791-0.483-1.49-0.934-2.099c-0.729-0.983-1.707-1.63-2.938-1.939c0.341-0.177,0.576-0.304,0.709-0.381
		c0.133-0.077,0.369-0.271,0.709-0.58c0.695-0.613,1.149-1.448,1.362-2.507h-4.491c-0.118,0.606-0.395,1.022-0.828,1.248
		c-0.596,0.31-1.509,0.464-2.736,0.464L419.094,404.721L419.094,404.721z"/>
</g>
<text transform="matrix(1 0 0 1 394.3887 427.6904)" fill="#29A7A7" font-family="'Montserrat-Bold'" font-size="10.0199">MUSIC</text>
</svg>
